PathFileType	4	(X/Y/Z)	C:\Users\WrightLab\Desktop\Jo\P1_boxCal23.trc
DataRate	CameraRate	NumFrames	NumMarkers	Units	OrigDataRate	OrigDataStartFrame	OrigNumFrames
100.00	100.00	       12	19	mm	100.00	351	       701
Frame#	Time	Headset_Front			Headset_Back			Headset_Left			Headset_Right			Left_Shoulder			Right_Shoulder			Sternum			C7			Left Elbow			Right Elbow			Left Wrist			Right Wrist			Left ASIS			Right ASIS			S2			Left Knee			Right Knee			Left Ankle			Right Ankle			
		X1	Y1	Z1	X2	Y2	Z2	X3	Y3	Z3	X4	Y4	Z4	X5	Y5	Z5	X6	Y6	Z6	X7	Y7	Z7	X8	Y8	Z8	X9	Y9	Z9	X10	Y10	Z10	X11	Y11	Z11	X12	Y12	Z12	X13	Y13	Z13	X14	Y14	Z14	X15	Y15	Z15	X16	Y16	Z16	X17	Y17	Z17	X18	Y18	Z18	X19	Y19	Z19	

351	3.500	-477.22787	1370.49609	348.26044	-665.21552	1494.18140	338.48410	-635.30939	1411.79346	193.67010	-450.74301	1315.75684	209.58789	-720.98932	1236.92456	163.29070	-579.31830	1265.53809	499.50934	-566.26147	1119.05627	323.46548	-774.72833	1288.19824	365.01270	-627.19159	949.80603	77.11705	-605.02612	1015.86273	640.63098	-435.76385	845.16815	8.63216	-538.72479	775.12762	677.06140	-642.25055	845.37091	250.07445	-569.19250	851.15802	439.24036	-893.58496	923.76123	476.92856	-773.22498	458.96335	208.52853	-593.93378	461.79211	563.07129	-752.31940	81.33308	211.48955				
352	3.510	-473.15256	1370.76526	342.51086	-662.29633	1493.81470	329.56152	-631.93683	1410.21741	185.56821	-447.05112	1313.58032	202.57915	-716.72290	1236.35669	156.09425	-577.94934	1265.36707	493.14624	-564.01868	1117.78894	313.36517	-772.41571	1288.91272	356.72403	-622.00519	949.32471	72.17951	-605.81738	1017.47131	635.57312	-430.57053	843.55450	5.54346	-542.47516	776.50940	675.34595	-641.24597	844.86731	246.24107	-571.34857	850.91876	435.48572	-895.72180	925.80737	468.38379	-773.81427	458.07663	206.48849	-594.27838	464.84265	559.27264	-752.27203	80.86418	211.25291				
353	3.520	-470.91821	1370.49609	335.85480	-659.44061	1493.43994	321.01169	-628.23340	1408.43604	177.40413	-444.05127	1311.36060	197.20639	-712.34167	1235.56787	149.31282	-577.24475	1265.58838	486.16617	-563.21259	1117.33374	312.43216	-769.92102	1289.50378	348.27399	-616.80438	948.85187	66.95907	-607.32373	1018.93384	631.16803	-425.73764	842.11670	1.87889	-546.10077	778.11346	673.63519	-640.22852	843.69922	241.96118	-574.16608	850.34692	432.58521	-897.55518	927.78326	459.99408	-774.66699	457.46466	204.78052	-595.41705	466.88586	551.68811	-752.01123	80.95684	209.34070				
354	3.530	-468.60107	1370.14722	329.19415	-656.50018	1492.94385	312.15457	-624.67218	1405.96191	170.72787	-441.05875	1309.43335	191.93977	-707.85657	1234.16760	143.04927	-576.77039	1265.85583	480.80710	-561.34320	1115.27136	309.95358	-767.74182	1290.15234	340.42712	-612.24500	948.02417	62.81341	-608.54504	1020.81592	627.31512	-420.99243	840.73651	-1.19741	-550.12866	780.11841	671.83936	-639.18744	842.96667	237.95197	-575.68396	851.14880	430.41479	-900.47388	930.55627	452.25519	-774.90826	455.97275	203.86008	-596.86255	469.68884	547.42957	-751.91327	80.05551	209.28880				
355	3.540	-465.69928	1369.45813	322.66687	-653.66040	1492.49951	304.25424	-621.21277	1404.34937	163.31818	-438.18338	1308.09570	186.99065	-703.84509	1234.07898	135.83185	-577.37970	1265.88660	475.83673	-560.57654	1114.86438	307.04684	-765.53748	1291.04834	332.93896	-607.70599	947.06494	59.17958	-610.52759	1021.71240	622.19073	-416.26022	839.11719	-2.58272	-553.66644	781.94354	670.26508	-637.68274	842.96722	233.61386	-577.21149	850.59656	427.66861	-901.89307	932.10840	443.99387	-775.39355	455.74673	201.17773	-598.15210	471.60199	541.26794	-751.71832	79.45469	208.77040				
356	3.550	-463.31870	1368.62903	317.29553	-650.74408	1492.03894	296.37146	-618.03918	1402.61169	156.45195	-435.12106	1305.89246	181.34656	-700.17230	1233.06287	129.58136	-576.96979	1266.07544	470.16245	-560.07141	1113.62915	301.70648	-763.46100	1291.57715	325.51257	-604.10394	946.24939	54.36265	-612.89856	1022.52893	618.69995	-411.61862	837.65405	-4.83349	-555.82379	782.78387	667.84814	-636.85809	842.68823	230.17073	-579.69690	850.24109	423.59821	-903.05652	933.86298	436.57489	-775.58649	454.94608	199.41972	-599.26758	474.04053	535.76752	-752.08997	79.60718	208.25275				
357	3.560	-461.23788	1368.03271	311.38342	-647.92639	1491.10461	288.68277	-614.63879	1400.78174	149.25966	-431.92929	1304.15833	176.20451	-696.45508	1232.73132	123.47288	-577.03308	1266.34534	465.63016	-558.76691	1112.58728	300.46637	-761.64722	1292.05969	318.39798	-600.23828	944.87775	51.03307	-615.15363	1023.81299	614.68817	-406.98062	835.72363	-6.27300	-558.81250	783.76990	666.05798	-634.54016	841.73962	226.16895	-582.22675	850.79413	421.51599	-904.17633	935.23871	429.06918	-777.06403	455.30783	196.36652	-600.40161	475.87408	529.51672	-752.95142	79.47935	207.14148				
358	3.570	-457.73788	1366.75452	306.13605	-645.19800	1490.37317	281.66080	-610.96796	1398.71179	143.52640	-429.19321	1301.98279	172.23079	-692.77905	1231.86670	116.94751	-577.36255	1266.76599	461.19104	-558.72125	1111.57239	295.53699	-759.62067	1292.27295	311.36929	-596.73126	944.19897	47.69917	-619.31567	1025.87866	610.69354	-402.36948	834.47363	-7.81174	-561.96387	785.68054	663.87225	-634.23706	841.11432	221.50174	-584.49207	850.90424	417.07040	-905.19904	936.56989	422.52405	-777.46082	455.73926	193.26796	-602.13116	477.51181	526.51868	-753.00299	79.42315	207.10883				
359	3.580	-456.28726	1366.61670	300.78812	-642.21344	1489.70544	274.22800	-608.23730	1396.78833	137.14096	-425.86865	1299.65833	167.08478	-688.84735	1230.56042	111.93125	-577.19940	1266.84302	456.74207	-557.59485	1111.04419	293.07877	-758.01501	1292.68030	304.69916	-593.14520	943.05835	44.78257	-622.38092	1027.00745	606.68304	-398.68149	833.42645	-9.47164	-565.59125	787.25067	661.21619	-631.87823	840.48291	218.52509	-585.66168	851.46625	416.08340	-905.99573	937.91547	416.07159	-777.96790	456.07321	189.15587	-603.37262	479.07547	521.84296	-753.06476	79.49798	206.55579				
360	3.590	-452.92426	1365.04846	295.48972	-639.71112	1488.65027	267.68011	-605.29468	1395.28711	130.60855	-423.45090	1298.18176	162.73962	-686.12329	1229.88586	106.71442	-577.70776	1266.86743	451.61487	-557.68579	1110.43713	289.05920	-756.54675	1292.89685	298.11459	-590.48529	942.04614	41.38438	-624.80682	1027.93762	602.97345	-394.21692	832.05035	-9.87709	-568.26477	788.32330	658.83685	-631.16571	839.67426	213.01363	-587.84033	851.11481	411.94943	-906.65112	939.33875	409.75305	-777.90820	455.93045	185.12849	-605.02856	480.15646	519.16217	-752.95282	79.62092	206.07458				
361	3.600	-451.46616	1364.87903	290.71396	-637.23212	1487.90247	261.27780	-601.91998	1393.05493	125.86737	-420.84250	1296.01489	159.54485	-682.84064	1228.70825	101.85670	-578.20209	1267.22473	447.73859	-556.60693	1110.67017	282.84546	-754.99054	1293.20190	292.09042	-586.73865	940.77771	38.05457	-628.77563	1029.60046	599.79926	-391.04822	831.27808	-11.23292	-571.69208	789.82214	656.32794	-630.29395	839.13702	209.00981	-589.68298	851.39655	408.00076	-907.24384	940.41736	403.87100	-777.47485	456.45218	182.81247	-607.40228	481.09470	515.48096	-753.27875	80.24136	203.84920				
362	3.610	-449.19711	1363.74109	286.09872	-634.59833	1486.97620	254.71654	-599.61847	1391.38330	119.91210	-417.61780	1294.60706	154.32430	-680.29315	1228.18640	96.30391	-578.92224	1267.48767	443.89636	-556.16016	1109.93616	280.94427	-753.52435	1293.56641	285.74731	-583.68634	940.68726	34.14231	-630.64136	1030.03162	595.79840	-386.94464	830.43146	-12.26934	-574.84766	790.80353	653.52936	-629.47375	839.01257	205.12859	-593.57257	851.10486	403.85760	-907.41071	941.37939	398.14108	-777.06329	455.70355	178.85506	-610.38147	481.23868	511.39175	-753.27747	80.11912	203.82628				
